<svg width="216" height="116" viewBox="0 0 216 116" fill="none" xmlns="http://www.w3.org/2000/svg">
<g filter="url(#filter0_d_7_7)">
<path d="M4.30682 93L15.8977 23.1818H26.4318L20.9432 56.5227H21.7955L56.5682 23.1818H69.8295L36.5227 54.6136L58.3409 93H45.6591L28.3409 61.8068L18.5227 71.3182L14.8409 93H4.30682ZM79.6477 23.1818H92.4318L105.727 77.4545H106.545L137.705 23.1818H150.489L138.898 93H128.875L137.295 42.4773H136.648L107.67 92.8977H99.3182L87.1818 42.4432H86.5341L78.0795 93H68.0568L79.6477 23.1818ZM200.747 41.9318C200.77 38.5 199.656 35.875 197.406 34.0568C195.179 32.2386 192.065 31.3295 188.065 31.3295C185.202 31.3295 182.645 31.7841 180.395 32.6932C178.168 33.5795 176.349 34.8068 174.94 36.375C173.554 37.9205 172.702 39.6818 172.384 41.6591C172.088 43.3182 172.236 44.75 172.827 45.9545C173.44 47.1591 174.315 48.1705 175.452 48.9886C176.611 49.7841 177.884 50.4545 179.27 51C180.656 51.5227 181.997 51.9545 183.293 52.2955L189.838 54.0682C191.952 54.6136 194.099 55.3523 196.281 56.2841C198.463 57.2159 200.429 58.4432 202.179 59.9659C203.929 61.4886 205.236 63.375 206.099 65.625C206.963 67.875 207.134 70.5682 206.611 73.7045C205.929 77.6591 204.327 81.1705 201.804 84.2386C199.281 87.3068 195.952 89.7273 191.815 91.5C187.679 93.2727 182.884 94.1591 177.429 94.1591C172.202 94.1591 167.804 93.3295 164.236 91.6705C160.69 90.0114 158.088 87.6591 156.429 84.6136C154.77 81.5455 154.179 77.9091 154.656 73.7045H165.259C165.009 76.2273 165.463 78.3295 166.622 80.0114C167.804 81.6705 169.463 82.9091 171.599 83.7273C173.736 84.5227 176.156 84.9205 178.861 84.9205C181.861 84.9205 184.599 84.4545 187.077 83.5227C189.554 82.5682 191.599 81.25 193.213 79.5682C194.827 77.8636 195.815 75.875 196.179 73.6023C196.543 71.5341 196.247 69.8409 195.293 68.5227C194.361 67.2045 192.952 66.1136 191.065 65.25C189.202 64.3864 187.077 63.625 184.69 62.9659L176.815 60.7159C171.474 59.1932 167.429 56.9545 164.679 54C161.929 51.0455 160.94 47.1364 161.713 42.2727C162.395 38.25 164.077 34.7386 166.759 31.7386C169.44 28.7386 172.781 26.4091 176.781 24.75C180.781 23.0682 185.122 22.2273 189.804 22.2273C194.531 22.2273 198.554 23.0682 201.872 24.75C205.19 26.4318 207.645 28.75 209.236 31.7045C210.827 34.6591 211.384 38.0682 210.906 41.9318H200.747Z" fill="#2E8555"/>
</g>
<defs>
<filter id="filter0_d_7_7" x="0.306818" y="22.2273" width="215.315" height="79.9318" filterUnits="userSpaceOnUse" color-interpolation-filters="sRGB">
<feFlood flood-opacity="0" result="BackgroundImageFix"/>
<feColorMatrix in="SourceAlpha" type="matrix" values="0 0 0 0 0 0 0 0 0 0 0 0 0 0 0 0 0 0 127 0" result="hardAlpha"/>
<feOffset dy="4"/>
<feGaussianBlur stdDeviation="2"/>
<feComposite in2="hardAlpha" operator="out"/>
<feColorMatrix type="matrix" values="0 0 0 0 0 0 0 0 0 0 0 0 0 0 0 0 0 0 0.25 0"/>
<feBlend mode="normal" in2="BackgroundImageFix" result="effect1_dropShadow_7_7"/>
<feBlend mode="normal" in="SourceGraphic" in2="effect1_dropShadow_7_7" result="shape"/>
</filter>
</defs>
</svg>
