<svg width="142" height="77" viewBox="0 0 142 77" fill="none" xmlns="http://www.w3.org/2000/svg">
<g filter="url(#filter0_b_7_7)">
<path d="M2.20455 62L9.93182 15.4545H16.9545L13.2955 37.6818H13.8636L37.0455 15.4545H45.8864L23.6818 36.4091L38.2273 62H29.7727L18.2273 41.2045L11.6818 47.5455L9.22727 62H2.20455ZM52.4318 15.4545H60.9545L69.8182 51.6364H70.3636L91.1364 15.4545H99.6591L91.9318 62H85.25L90.8636 28.3182H90.4318L71.1136 61.9318H65.5455L57.4545 28.2955H57.0227L51.3864 62H44.7045L52.4318 15.4545ZM133.165 27.9545C133.18 25.6667 132.438 23.9167 130.938 22.7045C129.453 21.4924 127.377 20.8864 124.71 20.8864C122.801 20.8864 121.097 21.1894 119.597 21.7955C118.112 22.3864 116.9 23.2045 115.96 24.25C115.036 25.2803 114.468 26.4545 114.256 27.7727C114.059 28.8788 114.157 29.8333 114.551 30.6364C114.96 31.4394 115.544 32.1136 116.301 32.6591C117.074 33.1894 117.922 33.6364 118.847 34C119.771 34.3485 120.665 34.6364 121.528 34.8636L125.892 36.0455C127.301 36.4091 128.733 36.9015 130.188 37.5227C131.642 38.1439 132.953 38.9621 134.119 39.9773C135.286 40.9924 136.157 42.25 136.733 43.75C137.309 45.25 137.422 47.0455 137.074 49.1364C136.619 51.7727 135.551 54.1136 133.869 56.1591C132.188 58.2045 129.968 59.8182 127.21 61C124.453 62.1818 121.256 62.7727 117.619 62.7727C114.134 62.7727 111.203 62.2197 108.824 61.1136C106.46 60.0076 104.725 58.4394 103.619 56.4091C102.513 54.3636 102.119 51.9394 102.438 49.1364H109.506C109.339 50.8182 109.642 52.2197 110.415 53.3409C111.203 54.447 112.309 55.2727 113.733 55.8182C115.157 56.3485 116.771 56.6136 118.574 56.6136C120.574 56.6136 122.4 56.303 124.051 55.6818C125.703 55.0455 127.066 54.1667 128.142 53.0455C129.218 51.9091 129.877 50.5833 130.119 49.0682C130.362 47.6894 130.165 46.5606 129.528 45.6818C128.907 44.803 127.968 44.0758 126.71 43.5C125.468 42.9242 124.051 42.4167 122.46 41.9773L117.21 40.4773C113.65 39.4621 110.953 37.9697 109.119 36C107.286 34.0303 106.627 31.4242 107.142 28.1818C107.597 25.5 108.718 23.1591 110.506 21.1591C112.294 19.1591 114.521 17.6061 117.188 16.5C119.854 15.3788 122.748 14.8182 125.869 14.8182C129.021 14.8182 131.703 15.3788 133.915 16.5C136.127 17.6212 137.763 19.1667 138.824 21.1364C139.884 23.1061 140.256 25.3788 139.938 27.9545H133.165Z" fill="#2E8555"/>
</g>
<defs>
<filter id="filter0_b_7_7" x="-1.79544" y="10.8182" width="146.21" height="55.9545" filterUnits="userSpaceOnUse" color-interpolation-filters="sRGB">
<feFlood flood-opacity="0" result="BackgroundImageFix"/>
<feGaussianBlur in="BackgroundImageFix" stdDeviation="2"/>
<feComposite in2="SourceAlpha" operator="in" result="effect1_backgroundBlur_7_7"/>
<feBlend mode="normal" in="SourceGraphic" in2="effect1_backgroundBlur_7_7" result="shape"/>
</filter>
</defs>
</svg>
